<?xml version="1.0" encoding="iso-8859-1"?>
<!-- Generator: Adobe Illustrator 19.0.0, SVG Export Plug-In . SVG Version: 6.00 Build 0)  -->
<svg version="1.1" id="Layer_1" xmlns="http://www.w3.org/2000/svg" xmlns:xlink="http://www.w3.org/1999/xlink" x="0px" y="0px"
	 viewBox="0 0 512 512" style="enable-background:new 0 0 512 512;" xml:space="preserve">
<path style="fill:#959CB5;" d="M484.571,429.714H27.429C12.28,429.714,0,417.434,0,402.286V109.714
	c0-15.149,12.28-27.429,27.429-27.429h457.143c15.149,0,27.429,12.28,27.429,27.429v292.571
	C512,417.434,499.72,429.714,484.571,429.714z"/>
<path style="fill:#8A90A7;" d="M28.563,429.714C60.56,275.119,164.875,147.072,304.527,82.286H27.429
	C12.28,82.286,0,94.566,0,109.714v292.571c0,15.149,12.28,27.429,27.429,27.429H28.563z"/>
<g>
	<path style="fill:#AFB9D2;" d="M82.286,192h-9.143c-15.149,0-27.429-12.28-27.429-27.429l0,0c0-15.149,12.28-27.429,27.429-27.429
		h9.143c15.149,0,27.429,12.28,27.429,27.429l0,0C109.714,179.72,97.434,192,82.286,192z"/>
	<path style="fill:#AFB9D2;" d="M82.286,283.429h-9.143c-15.149,0-27.429-12.28-27.429-27.429l0,0
		c0-15.149,12.28-27.429,27.429-27.429h9.143c15.149,0,27.429,12.28,27.429,27.429l0,0
		C109.714,271.149,97.434,283.429,82.286,283.429z"/>
	<path style="fill:#AFB9D2;" d="M182.857,192h-9.143c-15.149,0-27.429-12.28-27.429-27.429l0,0c0-15.149,12.28-27.429,27.429-27.429
		h9.143c15.149,0,27.429,12.28,27.429,27.429l0,0C210.286,179.72,198.006,192,182.857,192z"/>
</g>
<path style="fill:#B4E66E;" d="M82.286,374.857h-9.143c-15.149,0-27.429-12.28-27.429-27.429l0,0
	c0-15.149,12.28-27.429,27.429-27.429h9.143c15.149,0,27.429,12.28,27.429,27.429l0,0
	C109.714,362.577,97.434,374.857,82.286,374.857z"/>
<g>
	<path style="fill:#AFB9D2;" d="M182.857,283.429h-9.143c-15.149,0-27.429-12.28-27.429-27.429l0,0
		c0-15.149,12.28-27.429,27.429-27.429h9.143c15.149,0,27.429,12.28,27.429,27.429l0,0
		C210.286,271.149,198.006,283.429,182.857,283.429z"/>
	<path style="fill:#AFB9D2;" d="M283.429,192h-9.143c-15.149,0-27.429-12.28-27.429-27.429l0,0c0-15.149,12.28-27.429,27.429-27.429
		h9.143c15.149,0,27.429,12.28,27.429,27.429l0,0C310.857,179.72,298.577,192,283.429,192z"/>
</g>
<path style="fill:#FF5050;" d="M283.429,374.857h-9.143c-15.149,0-27.429-12.28-27.429-27.429l0,0
	c0-15.149,12.28-27.429,27.429-27.429h9.143c15.149,0,27.429,12.28,27.429,27.429l0,0
	C310.857,362.577,298.577,374.857,283.429,374.857z"/>
<path style="fill:#AFB9D2;" d="M283.429,283.429h-9.143c-15.149,0-27.429-12.28-27.429-27.429l0,0
	c0-15.149,12.28-27.429,27.429-27.429h9.143c15.149,0,27.429,12.28,27.429,27.429l0,0
	C310.857,271.149,298.577,283.429,283.429,283.429z"/>
<path style="fill:#464655;" d="M470.857,219.429c0-23.024-21.275-41.079-45.24-35.575c-13.19,3.029-23.878,13.757-26.909,26.945
	c-4.101,17.845,4.912,33.938,19.176,41.152l-9.536,66.757c-0.787,5.507,3.487,10.435,9.051,10.435h33.774
	c5.563,0,9.838-4.928,9.051-10.435l-9.536-66.757C462.605,245.923,470.857,233.696,470.857,219.429z"/>
<path style="fill:#7F8499;" d="M356.571,393.143c-5.054,0-9.143-4.089-9.143-9.143V128c0-5.049,4.089-9.143,9.143-9.143
	s9.143,4.094,9.143,9.143v256C365.714,389.054,361.625,393.143,356.571,393.143z"/>
<path style="fill:#FFDC64;" d="M182.857,374.857h-9.143c-15.149,0-27.429-12.28-27.429-27.429l0,0
	c0-15.149,12.28-27.429,27.429-27.429h9.143c15.149,0,27.429,12.28,27.429,27.429l0,0
	C210.286,362.577,198.006,374.857,182.857,374.857z"/>
<g>
</g>
<g>
</g>
<g>
</g>
<g>
</g>
<g>
</g>
<g>
</g>
<g>
</g>
<g>
</g>
<g>
</g>
<g>
</g>
<g>
</g>
<g>
</g>
<g>
</g>
<g>
</g>
<g>
</g>
</svg>
